[Header]
FileType HTR
DataType HTRS
FileVersion 1
NumSegments 48
NumFrames 3
DataFrameRate 30
EulerRotationOrder ZYX
CalibrationUnits mm
RotationUnits Degrees
GlobalAxisofGravity Y
BoneLengthAxis Y
ScaleFactor 1.0
[SegmentNames&Hierarchy]
Wolf	GLOBAL
Becken	Wolf
Bauch	Becken
Bauch_001	Bauch
Brust	Bauch_001
Hals	Brust
Kopf_002	Hals
Kopf	Kopf_002
Unterkiefer	Kopf
Hals_fett	Unterkiefer
Maulunten	Unterkiefer
Mauloben	Kopf
MundW_L	Kopf
MundW_R	Kopf
Augen_con	Kopf
IK_Aug_R	Augen_con
IK_Aug_L	Augen_con
Aug_R	Kopf
aug_L	Kopf
Ohr_L	Kopf
Ohr_R	Kopf
Braun_O_L	Kopf
Braun_O_R	Kopf
aug_lied_O_L	Kopf
aug_lied_O_R	Kopf
aug_lied_U_L	Kopf
aug_lied_U_R	Kopf
Bauch_003	Brust
Schalterplatte_L	Bauch_003
Oberarm_L	Schalterplatte_L
Unterarm_L	Oberarm_L
Vorderpfote_L	Unterarm_L
Schalterplatte_R	Bauch_003
Oberarm_R	Schalterplatte_R
Unterarm_R	Oberarm_R
Vorderpfote_R	Unterarm_R
Schwanz	Becken
Schwanz_001	Schwanz
Schwanz_002	Schwanz_001
Schwanz_003	Schwanz_002
Oberschenkel_L	Becken
Unterschenkel_L	Oberschenkel_L
Pfote1_L	Unterschenkel_L
Pfote2_L	Pfote1_L
Oberschenkel_R	Becken
Unterschenkel_R	Oberschenkel_R
Pfote1_R	Unterschenkel_R
Pfote2_R	Pfote1_R
[BasePosition]
Wolf	0	0	0	0	0	0	1
Becken	0	0	0	0	0	0	1
Bauch	0	0	0	0	0	0	1
Bauch_001	0	0	0	0	0	0	1
Brust	0	0	0	0	0	0	1
Hals	0	0	0	0	0	0	1
Kopf_002	0	0	0	0	0	0	1
Kopf	0	0	0	0	0	0	1
Unterkiefer	0	0	0	0	0	0	1
Hals_fett	0	0	0	0	0	0	1
Maulunten	0	0	0	0	0	0	1
Mauloben	0	0	0	0	0	0	1
MundW_L	0	0	0	0	0	0	1
MundW_R	0	0	0	0	0	0	1
Augen_con	0	0	0	0	0	0	1
IK_Aug_R	0	0	0	0	0	0	1
IK_Aug_L	0	0	0	0	0	0	1
Aug_R	0	0	0	0	0	0	1
aug_L	0	0	0	0	0	0	1
Ohr_L	0	0	0	0	0	0	1
Ohr_R	0	0	0	0	0	0	1
Braun_O_L	0	0	0	0	0	0	1
Braun_O_R	0	0	0	0	0	0	1
aug_lied_O_L	0	0	0	0	0	0	1
aug_lied_O_R	0	0	0	0	0	0	1
aug_lied_U_L	0	0	0	0	0	0	1
aug_lied_U_R	0	0	0	0	0	0	1
Bauch_003	0	0	0	0	0	0	1
Schalterplatte_L	0	0	0	0	0	0	1
Oberarm_L	0	0	0	0	0	0	1
Unterarm_L	0	0	0	0	0	0	1
Vorderpfote_L	0	0	0	0	0	0	1
Schalterplatte_R	0	0	0	0	0	0	1
Oberarm_R	0	0	0	0	0	0	1
Unterarm_R	0	0	0	0	0	0	1
Vorderpfote_R	0	0	0	0	0	0	1
Schwanz	0	0	0	0	0	0	1
Schwanz_001	0	0	0	0	0	0	1
Schwanz_002	0	0	0	0	0	0	1
Schwanz_003	0	0	0	0	0	0	1
Oberschenkel_L	0	0	0	0	0	0	1
Unterschenkel_L	0	0	0	0	0	0	1
Pfote1_L	0	0	0	0	0	0	1
Pfote2_L	0	0	0	0	0	0	1
Oberschenkel_R	0	0	0	0	0	0	1
Unterschenkel_R	0	0	0	0	0	0	1
Pfote1_R	0	0	0	0	0	0	1
Pfote2_R	0	0	0	0	0	0	1
[Wolf]
40	0	0	0	-90	-0	0	1.0
41	0	0	0	-90	-0	0	1.0
42	0	0	0	-90	-0	0	1.0
[Becken]
40	0	0.3199199438	-0.2350037694	-2.067962885	164.4212189	89.26520538	1.0
41	0	0.3270799518	-0.2473797202	-2.067962885	164.4212189	89.26520538	1.0
42	0	0.3370659947	-0.2635718584	-2.067962885	164.4212189	89.26520538	1.0
[Bauch]
40	0.9984878302	-0.00741992658	-0.150611341	-6.458931239e-07	12.60522842	-8.201818247e-08	1.0
41	0.9984878302	-0.00741992658	-0.150611341	-6.458931239e-07	12.60522842	-8.201818247e-08	1.0
42	0.9984878302	-0.00741992658	-0.150611341	-6.458931239e-07	12.60522842	-8.201818247e-08	1.0
[Bauch_001]
40	1.071342349	0.006600080058	-0.1893585622	-1.568805601e-07	2.360082865	-2.503413654e-08	1.0
41	1.071342349	0.006600080058	-0.1893585622	-1.568805601e-07	2.360082865	-2.503413654e-08	1.0
42	1.071342349	0.006600080058	-0.1893585622	-1.568805601e-07	2.360082865	-2.503413654e-08	1.0
[Brust]
40	1.41907382	-0.01381989196	0.3623858392	3.618613846e-06	10.7627573	-4.096809789e-05	1.0
41	1.41907382	-0.01381989196	0.3623858392	3.618613846e-06	10.7627573	-4.096809789e-05	1.0
42	1.41907382	-0.01381989196	0.3623858392	3.618613846e-06	10.7627573	-4.096809789e-05	1.0
[Hals]
40	1.1844244	-0.01484991144	1.02827692	-4.51789947e-06	46.87745285	-2.16624926e-06	1.0
41	1.1844244	-0.01484991144	1.02827692	-4.51789947e-06	46.87745285	-2.16624926e-06	1.0
42	1.1844244	-0.01484991144	1.02827692	-4.51789947e-06	46.87745285	-2.16624926e-06	1.0
[Kopf_002]
40	1.75259161	3.012944944e-05	0.2651725411	0.006653842982	-165.1497192	0.002556535648	1.0
41	1.75259161	3.012944944e-05	0.2651725411	0.006653842982	-165.1497192	0.002556535648	1.0
42	1.75259161	3.012944944e-05	0.2651725411	0.006653842982	-165.1497192	0.002556535648	1.0
[Kopf]
40	1.015781879	8.032657206e-08	9.111317922e-08	0.06872025877	123.2280426	-0.02605217695	1.0
41	1.015781879	8.032657206e-08	9.111317922e-08	0.06872025877	123.2280426	-0.02605217695	1.0
42	1.015781879	8.032657206e-08	9.111317922e-08	0.06872025877	123.2280426	-0.02605217695	1.0
[Unterkiefer]
40	0.6370437145	0.004552738741	0.4060620368	5.412721157	-68.3888092	-3.09354353	1.0
41	0.6370437145	0.004552738741	0.4060620368	5.412721157	-68.3888092	-3.09354353	1.0
42	0.6370437145	0.004552738741	0.4060620368	5.412721157	-68.3888092	-3.09354353	1.0
[Hals_fett]
40	0.2998299599	0.007747137919	0.1206380203	-5.071650982	-59.35961533	5.585566998	1.0
41	0.2998299599	0.007747137919	0.1206380203	-5.071650982	-59.35961533	5.585566998	1.0
42	0.2998299599	0.007747137919	0.1206380203	-5.071650982	-59.35961533	5.585566998	1.0
[Maulunten]
40	0.08317943662	-0.007747350261	-0.1206459776	-3.32220912	38.97271347	-0.871876061	1.0
41	0.08317943662	-0.007747350261	-0.1206459776	-3.32220912	38.97271347	-0.871876061	1.0
42	0.08317943662	-0.007747350261	-0.1206459776	-3.32220912	38.97271347	-0.871876061	1.0
[Mauloben]
40	0.910148263	0.0004056794569	0.4003701806	-0.1032674983	-28.77768707	0.03543139994	1.0
41	0.910148263	0.0004056794569	0.4003701806	-0.1032674983	-28.77768707	0.03543139994	1.0
42	0.910148263	0.0004056794569	0.4003701806	-0.1032674983	-28.77768707	0.03543139994	1.0
[MundW_L]
40	0.673060894	-0.3618556261	0.3751286268	-179.8370972	-17.94884872	24.71397209	1.0
41	0.673060894	-0.3618556261	0.3751286268	-179.8370972	-17.94884872	24.71397209	1.0
42	0.673060894	-0.3618556261	0.3751286268	-179.8370972	-17.94884872	24.71397209	1.0
[MundW_R]
40	0.6732318401	0.3627035022	0.37398085	179.6653442	-18.02427101	-24.69083977	1.0
41	0.6732318401	0.3627035022	0.37398085	179.6653442	-18.02427101	-24.69083977	1.0
42	0.6732318401	0.3627035022	0.37398085	179.6653442	-18.02427101	-24.69083977	1.0
[Augen_con]
40	1.807372689	-0.0001604028512	0.1835819334	0.09822253883	157.1545258	0.02385936864	1.0
41	1.807372689	-0.0001604028512	0.1835819334	0.09822253883	157.1545258	0.02385936864	1.0
42	1.807372689	-0.0001604028512	0.1835819334	0.09822253883	157.1545258	0.02385936864	1.0
[IK_Aug_R]
40	0.3461304307	0.2943200469	-8.032657206e-08	-0.4194762409	-4.963055134	165.6946411	1.0
41	0.3461304307	0.2943200469	-8.032657206e-08	-0.4194762409	-4.963055134	165.6946411	1.0
42	0.3461304307	0.2943200469	-8.032657206e-08	-0.4194762409	-4.963055134	165.6946411	1.0
[IK_Aug_L]
40	0.3461307883	-0.2943199575	-1.629814861e-08	0.4194769561	-4.963055134	-165.6946411	1.0
41	0.3461307883	-0.2943199575	-1.629814861e-08	0.4194769561	-4.963055134	-165.6946411	1.0
42	0.3461307883	-0.2943199575	-1.629814861e-08	0.4194769561	-4.963055134	-165.6946411	1.0
[Aug_R]
40	1.0351547	0.2207805812	-0.09605748951	176.004776	-17.29163933	12.85548019	1.0
41	1.0351547	0.2207805812	-0.09605748951	176.004776	-17.29163933	12.85548019	1.0
42	1.0351547	0.2207805812	-0.09605748951	176.004776	-17.29163933	12.85548019	1.0
[aug_L]
40	1.035044074	-0.2215988934	-0.09535883367	-176.1891022	-17.33178139	-12.83103275	1.0
41	1.035044074	-0.2215988934	-0.09535883367	-176.1891022	-17.33178139	-12.83103275	1.0
42	1.035044074	-0.2215988934	-0.09535883367	-176.1891022	-17.33178139	-12.83103275	1.0
[Ohr_L]
40	0.6407760978	-0.3659991622	-0.6893320084	-24.34924507	53.07766342	-15.02013397	1.0
41	0.6407760978	-0.3659991622	-0.6893320084	-24.34924507	53.07766342	-15.02013397	1.0
42	0.6407760978	-0.3659991622	-0.6893320084	-24.34924507	53.07766342	-15.02013397	1.0
[Ohr_R]
40	0.6409583092	0.3634999394	-0.6904845238	24.05786133	53.12416077	14.75857162	1.0
41	0.6409583092	0.3634999394	-0.6904845238	24.05786133	53.12416077	14.75857162	1.0
42	0.6409583092	0.3634999394	-0.6904845238	24.05786133	53.12416077	14.75857162	1.0
[Braun_O_L]
40	0.9801794291	-0.3706048727	-0.3292538524	-143.3172302	-34.69635391	52.39493942	1.0
41	0.9801794291	-0.3706048727	-0.3292538524	-143.3172302	-34.69635391	52.39493942	1.0
42	0.9801794291	-0.3706048727	-0.3292538524	-143.3172302	-34.69635391	52.39493942	1.0
[Braun_O_R]
40	0.9803634882	0.3690741956	-0.3304223716	143.1826782	-34.83971786	-52.3467598	1.0
41	0.9803634882	0.3690741956	-0.3304223716	143.1826782	-34.83971786	-52.3467598	1.0
42	0.9803634882	0.3690741956	-0.3304223716	143.1826782	-34.83971786	-52.3467598	1.0
[aug_lied_O_L]
40	1.038881421	-0.3271433711	-0.1608108282	-175.8613434	-20.15596199	60.31666946	1.0
41	1.038881421	-0.3271433711	-0.1608108282	-175.8613434	-20.15596199	60.31666946	1.0
42	1.038881421	-0.3271433711	-0.1608108282	-175.8613434	-20.15596199	60.31666946	1.0
[aug_lied_O_R]
40	1.039044261	0.3261157274	-0.1618429124	175.7657928	-20.31323814	-60.31218338	1.0
41	1.039044261	0.3261157274	-0.1618429124	175.7657928	-20.31323814	-60.31218338	1.0
42	1.039044261	0.3261157274	-0.1618429124	175.7657928	-20.31323814	-60.31218338	1.0
[aug_lied_U_L]
40	1.021915555	-0.3312865496	-0.1338484734	-159.8099365	-28.7482872	60.17461395	1.0
41	1.021915555	-0.3312865496	-0.1338484734	-159.8099365	-28.7482872	60.17461395	1.0
42	1.021915555	-0.3312865496	-0.1338484734	-159.8099365	-28.7482872	60.17461395	1.0
[aug_lied_U_R]
40	1.02207756	0.3303526342	-0.1348843277	159.7071381	-28.90532684	-60.15359116	1.0
41	1.02207756	0.3303526342	-0.1348843277	159.7071381	-28.90532684	-60.15359116	1.0
42	1.02207756	0.3303526342	-0.1348843277	159.7071381	-28.90532684	-60.15359116	1.0
[Bauch_003]
40	1.444672227	0.03385011479	-1.56629622	-3.870021374e-06	-137.6799469	1.039222207e-05	1.0
41	1.444672227	0.03385011479	-1.56629622	-3.870021374e-06	-137.6799469	1.039222207e-05	1.0
42	1.444672227	0.03385011479	-1.56629622	-3.870021374e-06	-137.6799469	1.039222207e-05	1.0
[Schalterplatte_L]
40	0.9072799683	-0.3820410073	-0.02659028582	-106.2930222	65.67273712	-139.7734833	1.0
41	0.9136086702	-0.3817362785	-0.03625950217	-106.4217682	65.19850159	-139.603714	1.0
42	0.9221926928	-0.3814315498	-0.04592871666	-106.8689575	65.02176666	-139.6349487	1.0
[Oberarm_L]
40	1.418636918	9.313225746e-08	1.303851604e-07	-126.9492188	-54.56251907	154.514801	1.0
41	1.418636918	9.313225746e-08	1.303851604e-07	-123.6274872	-56.80910873	150.331955	1.0
42	1.418636918	9.313225746e-08	1.303851604e-07	-119.814003	-58.84404373	145.5301514	1.0
[Unterarm_L]
40	2.028227806	1.885928214e-07	1.862644972e-08	66.10710907	78.18630219	71.0246048	1.0
41	2.028227806	1.885928214e-07	1.862644972e-08	72.24269104	78.80279541	77.14848328	1.0
42	2.028227806	1.885928214e-07	1.862644972e-08	74.51501465	79.25927734	79.30673218	1.0
[Vorderpfote_L]
40	1.705947399	2.607703209e-07	2.305023372e-07	-32.09318542	-12.53395176	-0.3547882736	1.0
41	1.705947399	2.607703209e-07	2.305023372e-07	-33.16992188	-11.9461832	0.7587987185	1.0
42	1.705947399	2.607703209e-07	2.305023372e-07	-33.78324509	-11.46202374	1.381251216	1.0
[Schalterplatte_R]
40	0.908159256	0.3864066601	0.03493811935	12.18478298	73.1396637	41.43401337	1.0
41	0.9231547117	0.3885978162	0.0505304262	11.25069523	72.75965881	40.5475769	1.0
42	0.9432833791	0.3907889128	0.06819246709	10.59571838	72.49603271	39.96593094	1.0
[Oberarm_R]
40	1.418636441	2.235174179e-07	1.490116119e-07	79.49984741	-60.76760101	-95.43907928	1.0
41	1.418636441	2.235174179e-07	1.490116119e-07	80.7348175	-60.81356049	-96.86991119	1.0
42	1.418636441	2.235174179e-07	1.490116119e-07	82.19869995	-60.83890152	-98.58005524	1.0
[Unterarm_R]
40	2.028232098	1.350417733e-07	-7.450580597e-08	-4.586555481	56.87059402	-4.883221626	1.0
41	2.028232098	1.350417733e-07	-7.450580597e-08	-4.637543678	56.73547363	-4.939200878	1.0
42	2.028232098	1.350417733e-07	-7.450580597e-08	-4.753674507	56.84181976	-5.060595036	1.0
[Vorderpfote_R]
40	1.705937624	9.313230187e-09	7.101335342e-08	-0.6933023334	93.44815063	-1.034108281	1.0
41	1.705937624	9.313230187e-09	7.101335342e-08	-0.4950645566	93.55725861	-0.8349832296	1.0
42	1.705937624	9.313230187e-09	7.101335342e-08	-0.2161766589	93.79322815	-0.5543348193	1.0
[Schwanz]
40	-0.0971076712	-1.338776023e-08	0.06446662545	0.02887479775	-121.5907822	-0.07877948135	1.0
41	-0.1044721082	-1.338776023e-08	0.06780007482	0.05047122017	-122.0304794	-0.1396238804	1.0
42	-0.1147430688	-1.338776023e-08	0.07355607301	0.07660587132	-122.60569	-0.2172638774	1.0
[Schwanz_001]
40	0.9104326963	6.926712359e-08	1.564329999e-09	-0.6512750983	-7.957067966	0.6096542478	1.0
41	0.9104326963	6.926712359e-08	1.564329999e-09	-0.639413178	-8.465098381	0.595194459	1.0
42	0.9104326963	6.926712359e-08	1.564329999e-09	-0.6236193776	-9.129698753	0.5760394335	1.0
[Schwanz_002]
40	0.7855662704	6.053597446e-08	1.369335223e-07	-0.3656460047	-14.69231892	0.2823034823	1.0
41	0.7855662704	6.053597446e-08	1.369335223e-07	-0.3372622728	-14.46662426	0.2601061165	1.0
42	0.7855662704	6.053597446e-08	1.369335223e-07	-0.3013148904	-14.1790638	0.2320744246	1.0
[Schwanz_003]
40	0.8350353241	6.286426668e-08	8.163624443e-08	0.3312173188	7.597559452	-0.2375411391	1.0
41	0.8350353241	6.286426668e-08	8.163624443e-08	0.2481298	4.163731575	-0.1546985507	1.0
42	0.8350353241	6.286426668e-08	8.163624443e-08	0.1291784644	-0.3672838211	-0.03604215384	1.0
[Oberschenkel_L]
40	0.708968699	-0.5837000012	0.08334955573	17.13318443	-65.73124695	-11.91718388	1.0
41	0.6850639582	-0.5837000012	0.08643725514	17.79263878	-67.00032043	-12.63781738	1.0
42	0.6537941098	-0.5837000012	0.09188248217	18.29059792	-67.84980011	-13.17665291	1.0
[Unterschenkel_L]
40	1.686438918	1.123989932e-07	3.725288078e-09	-84.84381866	-77.68308258	92.93366241	1.0
41	1.686438918	1.119751261e-07	3.820808558e-09	-82.83355713	-77.69567108	90.8505249	1.0
42	1.686438918	1.115512447e-07	3.916328595e-09	-82.46004486	-77.72119141	90.40597534	1.0
[Pfote1_L]
40	1.190900326	1.527369022e-07	-1.094304025e-07	-1.88550806	63.38027954	-11.294981	1.0
41	1.190900326	1.53310026e-07	-1.079976002e-07	-1.098389864	60.61434937	-10.40674686	1.0
42	1.190900326	1.538831498e-07	-1.065647908e-07	-0.3707825541	57.24523544	-9.554055214	1.0
[Pfote2_L]
40	0.9876254797	1.033768058e-07	-4.842877388e-08	22.22692108	104.7718048	16.88189697	1.0
41	0.9876254797	1.016096789e-07	-4.680492793e-08	21.5657692	105.341301	16.17459869	1.0
42	0.9876254797	9.9842552e-08	-4.518108554e-08	21.56209183	105.5985947	16.11329651	1.0
[Oberschenkel_R]
40	0.5482726693	0.5837000608	-0.07187380642	-10.56101799	-31.8795433	3.569223404	1.0
41	0.5678260326	0.5837000608	-0.06192376465	-10.46434784	-30.38010406	3.383266687	1.0
42	0.5892386436	0.5837000608	-0.04830956832	-10.39243698	-29.16513634	3.237787008	1.0
[Unterschenkel_R]
40	1.686449051	1.11758709e-07	3.725289943e-08	-38.42879486	-121.9616318	19.28046036	1.0
41	1.686449051	1.11758709e-07	3.725289943e-08	-38.41310501	-121.6679764	19.39324951	1.0
42	1.686449051	1.11758709e-07	3.725289943e-08	-38.602211	-121.0812149	19.84233284	1.0
[Pfote1_R]
40	1.190900326	2.176966518e-07	1.11758709e-07	-3.179436684	48.112957	4.531888008	1.0
41	1.190900326	2.176966518e-07	1.11758709e-07	-3.297718525	49.35730743	4.374160767	1.0
42	1.190900326	2.176966518e-07	1.11758709e-07	-3.433548927	50.66451645	4.197313309	1.0
[Pfote2_R]
40	0.9876256585	1.024454832e-07	-4.656610209e-09	-53.15390396	105.7535172	-40.35560608	1.0
41	0.9876256585	1.024454832e-07	-4.656610209e-09	-55.6077652	105.1473389	-42.82439041	1.0
42	0.9876256585	1.024454832e-07	-4.656610209e-09	-58.29708862	104.4343643	-45.57762527	1.0
[EndOfFile]
